# xmcd
#
# Track frame offsets:
#	183
#	18223
#	42345
#	66108
#	88388
#
# Disc length: 1537 seconds
# Revision: 0
# Processed by: cddbd v1.5.2PL0 Copyright (c) Steve Scherf et al.
# Submitted via: dBpowerAMP V12.0
#
DISCID=3b05ff05
DTITLE=I To I - The Right Time
DYEAR=1993
DGENRE=House
TTITLE0=The Right Time [Station Edit]
TTITLE1=The Right Time [Extended Mix]
TTITLE2=The Right Time [Fiction Remix]
TTITLE3=Best Of Both [Fiction Remix]
TTITLE4=Best Of Both [Art Version]
EXTD=
EXTT0=
EXTT1=
EXTT2=
EXTT3=
EXTT4=
PLAYORDER=
